<svg xmlns="http://www.w3.org/2000/svg" viewBox="0 0 16 32" shape-rendering="crispEdges">
<path fill="rgba(185,140,85,51)" d="M5,8h0v1h6v-1z M3,9h0v1h10v-1z M2,10h0v1h5v-1z M8,10h0v1h6v-1z M1,11h0v1h5v-1z M9,11h0v1h6v-1z M1,12h0v1h5v-1z M10,12h0v1h5v-1z M0,13h0v1h6v-1z M11,13h0v1h5v-1z M0,14h0v1h5v-1z M11,14h0v1h5v-1z M0,15h0v1h5v-1z M11,15h0v1h5v-1z M0,16h0v1h5v-1z M11,16h0v1h5v-1z M0,17h0v1h6v-1z M10,17h0v1h6v-1z M1,18h0v1h5v-1z M9,18h0v1h6v-1z M1,19h0v1h5v-1z M9,19h0v1h6v-1z M2,20h0v1h2v-1z M11,20h0v1h3v-1z M3,21h0v1h1v-1z M11,21h0v1h2v-1z M5,22h0v1h1v-1z M9,22h0v1h2v-1z" /><path fill="#d46c77" d="M7,10h0v1h1v-1z M8,11h0v1h1v-1z M8,12h0v1h2v-1z M6,13h0v1h2v-1z M10,13h0v1h1v-1z M6,14h0v1h1v-1z M10,14h0v1h1v-1z M6,15h0v1h1v-1z M9,15h0v1h1v-1z M6,16h0v1h1v-1z M9,16h0v1h2v-1z M6,17h0v1h2v-1z M9,17h0v1h1v-1z M7,18h0v1h2v-1z" /><path fill="#bb474a" d="M6,11h0v1h2v-1z M6,12h0v1h1v-1z M5,14h0v1h1v-1z M7,14h0v1h1v-1z M5,15h0v1h1v-1z M10,15h0v1h1v-1z M5,16h0v1h1v-1z M6,18h0v1h1v-1z" /><path fill="#d1d8ca" d="M7,12h0v1h1v-1z M8,13h0v1h2v-1z M9,14h0v1h1v-1z M7,15h0v1h2v-1z M7,16h0v1h2v-1z" /><path fill="#bfc4b6" d="M8,14h0v1h1v-1z M8,17h0v1h1v-1z" /><path fill="#4a2d37" d="M6,19h0v1h1v-1z M8,19h0v1h1v-1z M7,22h0v1h1v-1z M6,23h0v1h1v-1z M8,23h0v1h1v-1z M6,24h0v1h1v-1z M8,24h0v1h1v-1z M6,25h0v1h1v-1z M8,25h0v1h1v-1z M6,26h0v1h1v-1z M8,26h0v1h1v-1z M6,27h0v1h1v-1z M8,27h0v1h1v-1z M6,28h0v1h1v-1z M8,28h0v1h1v-1z M6,29h0v1h1v-1z M8,29h0v1h1v-1z M6,30h0v1h1v-1z M8,30h0v1h1v-1z M7,31h0v1h1v-1z" /><path fill="#754542" d="M7,19h0v1h1v-1z M7,23h0v1h1v-1z M7,24h0v1h1v-1z M7,25h0v1h1v-1z M7,26h0v1h1v-1z M7,27h0v1h1v-1z M7,28h0v1h1v-1z M7,29h0v1h1v-1z M7,30h0v1h1v-1z" /><path fill="#464d4d" d="M4,20h0v1h2v-1z M9,20h0v1h2v-1z M4,21h0v1h2v-1z M9,21h0v1h2v-1z" /><path fill="#5e6763" d="M6,20h0v1h3v-1z M6,21h0v1h3v-1z" /><path fill="#3a232b" d="M6,22h0v1h1v-1z M8,22h0v1h1v-1z M6,31h0v1h1v-1z M8,31h0v1h1v-1z" />
</svg>